<?xml version="1.0" encoding="utf-8"?>
<!-- Generator: Adobe Illustrator 24.1.0, SVG Export Plug-In . SVG Version: 6.00 Build 0)  -->
<svg version="1.1" id="Capa_1" xmlns="http://www.w3.org/2000/svg" xmlns:xlink="http://www.w3.org/1999/xlink" x="0px" y="0px"
	 viewBox="0 0 1920 1080" style="enable-background:new 0 0 1920 1080;" xml:space="preserve">
<style type="text/css">
	.st0{display:none;fill:#FFFFFF;}
	.st1{fill:#7848B6;}
	.st2{fill:#9B4BBE;}
	.st3{fill:#A54C9E;}
	.st4{fill:#C16FBF;}
	.st5{fill:#FFE1FF;}
	.st6{fill:none;}
	.st7{display:none;}
	.st8{display:inline;fill:#FFFFFF;}
	.st9{font-family:'Staatliches-Regular';}
	.st10{font-size:32.3982px;}
</style>
<path class="st0" d="M53.93,64.63c3.88,0.17,7.76,0.42,11.65,0.51c8.3,0.2,16.55-0.07,24.7-1.92c4.09-0.93,8.03-2.16,11.47-4.62
	c0.86-0.61,1.71-1.32,2.34-2.16c1.31-1.76,0.56-3.67-1.89-5.23c-5.62-3.57-11.84-4.94-18.41-5.02c-9.85-0.12-19.45,1.25-28.7,4.72
	c-2.3,0.86-4.48,2.05-6.71,3.09c-0.12-0.14-0.25-0.28-0.37-0.42c0.12-0.08,0.31-0.2,0.55-0.33c0.32-0.18,0.58-0.29,0.64-0.33
	c4.24-2.95,8.91-5,13.8-6.57c7.18-2.3,14.58-3.49,22.06-4.1c9.24-0.76,18.48-0.6,27.67,0.86c6.38,1.01,12.65,2.47,18.32,5.73
	c1.69,0.97,3.24,2.24,4.71,3.54c3.06,2.71,2.74,6.73,0.53,9.8c-2.44,3.39-5.89,5.4-9.42,7.36c-5.17,2.87-10.69,4.87-16.44,6.08
	c-6.87,1.44-13.8,2.67-20.75,3.68c-10.23,1.48-20.54,1.71-30.86,1.12c-6.04-0.35-12.04-1.12-17.92-2.63
	c-0.37-0.09-0.73-0.22-0.72-0.21c2.31,0,4.98,0,7.65,0c6.44-0.01,12.89,0.15,19.33-0.06c7.89-0.26,15.78-0.9,23.51-2.62
	c5.75-1.29,11.56-2.51,17.13-4.37c4.83-1.61,9.48-3.94,13.33-7.45c1.49-1.36,3.03-2.82,2.66-5.17c-0.28-1.79-1.6-2.87-3-3.7
	c-2.59-1.54-5.27-2.93-7.92-4.38c-0.06,0.11-0.13,0.22-0.19,0.33c0.46,0.74,1.02,1.45,1.37,2.24c1.04,2.39-0.7,5.02-2.44,6.54
	c-4.89,4.27-10.94,5.59-17.04,6.72c-8.54,1.59-17.17,1.96-25.81,1.37C63.74,66.67,53.89,64.78,53.93,64.63z"/>
<path class="st0" d="M116.43,61.37c-2.88,3.08-6.48,4.92-10.24,6.44c-6.05,2.45-12.37,3.87-18.82,4.87
	c-8.01,1.24-16.05,1.67-24.13,1.3c-9.16-0.42-18.23-1.5-26.72-5.23c-2.62-1.15-5.23-2.64-7.38-4.51c-4.13-3.58-3.74-7.41-0.61-11.24
	c2.79-3.42,6.56-5.58,10.46-7.5c5.2-2.56,10.69-4.36,16.34-5.53c6.25-1.29,12.54-2.53,18.87-3.34c9.45-1.22,18.97-1.58,28.51-1.2
	c6.53,0.26,13.01,1.02,19.39,2.44c0.64,0.14,1.27,0.35,1.63,0.46c-2.57,0-5.39-0.03-8.21,0.01c-8.14,0.11-16.31-0.05-24.43,0.46
	c-6.6,0.42-13.21,1.4-19.72,2.6c-7.69,1.42-15.25,3.49-22.16,7.31c-2.87,1.59-5.72,3.3-7.76,6.04c-1.56,2.09-1.31,4.44,0.75,6.13
	c3.13,2.56,6.8,4.08,10.48,5.58c5.29,2.15,10.88,2.9,16.5,3.31c8.94,0.65,17.86,0.3,26.7-1.21c6.96-1.19,13.81-2.85,19.83-6.86
	C115.91,61.53,116.18,61.47,116.43,61.37z"/>
<path class="st0" d="M93.35,50.08c-3.75,0-7.21-0.05-10.67,0.01c-5.66,0.09-11.3,0.49-16.6,2.66c-1.48,0.6-2.74,1.77-4.03,2.76
	c-0.76,0.58-0.73,1.48-0.01,1.98c1.63,1.15,3.36,2.15,5.02,3.19c0.11-1.3-0.08-2.38,0.35-3.09c0.46-0.75,1.42-1.39,2.3-1.67
	c2.82-0.89,5.65-1.85,8.55-2.3c4.29-0.66,8.62-0.58,12.81,0.84c0.85,0.29,1.71,0.68,2.43,1.19c1.07,0.76,1.28,2.07,0.19,2.83
	c-1.97,1.37-4.07,2.84-6.33,3.47c-7.63,2.1-15.44,2.45-23.23,1c-2.37-0.44-4.71-1.49-6.86-2.65c-2.35-1.27-2.94-3.57-0.39-6.09
	c2.65-2.62,6.09-3.5,9.49-4.25c7.48-1.65,15.04-2.1,22.64-0.76C90.37,49.46,91.74,49.76,93.35,50.08z"/>
<g id="XMLID_2_">
	<g>
		<path class="st1" d="M1858.82,465.88c50.74,45.05,45.44,111.83,8.74,162.81c-40.49,56.24-97.86,89.79-156.49,122.28
			c-85.89,47.62-177.67,80.9-273.19,100.94c-114.13,23.91-229.23,44.43-344.64,61.08c-170.02,24.49-341.33,28.4-512.72,18.57
			c-100.4-5.73-200.05-18.64-297.8-43.69c-6.05-1.52-11.94-3.47-11.94-3.51c38.42,0,82.77,0.04,127.12,0
			c107.03-0.08,214.14,2.5,321.05-0.98c131.13-4.29,262.11-14.9,390.51-43.61c95.6-21.34,192.02-41.66,284.69-72.51
			c80.31-26.8,157.46-65.41,221.47-123.72c35.38-32.26,49.42-61,44.23-85.89c-0.12-0.62-0.39-1.64-0.7-2.81
			c-6.71-23.95-26.09-37.76-37.37-45.56c-52.46-36.24-89.71-54.61-89.71-54.61c-16.07-7.92-35.1-16.77-56.79-25.86
			c7.64,12.36,16.93,24.03,22.7,37.21c17.32,39.71-11.7,83.47-40.56,108.71c-81.17,71.03-181.72,92.79-283.13,111.67
			c-114.6,21.26-245.3,38.22-428.82,22.74c-101.68-8.54-185.9-25.12-246.08-39.51c64.51,2.89,128.99,6.9,193.54,8.42
			c137.84,3.24,275.06-1.09,410.41-31.91c67.95-15.45,133.36-35.92,190.62-76.76c14.28-10.18,28.43-21.96,38.77-35.92
			c21.73-29.21,9.36-60.96-31.36-86.82c-93.38-59.33-196.74-82.14-305.95-83.51c-163.59-1.99-323.23,20.79-476.83,78.36
			c-29.49,11.04-57.77,25.35-86.16,39.24l-5.03-10.38c68.65-46.53,143.97-79.34,222.68-104.57
			c119.24-38.15,242.3-57.96,366.49-68.18c153.48-12.64,307.08-9.99,459.67,14.28c106.09,16.85,210.2,41.03,304.35,95.09
			C1808.66,423.14,1834.44,444.24,1858.82,465.88z"/>
		<path class="st2" d="M1631.85,224.95c10.65,2.34,21.02,5.85,27.07,7.57c-42.75,0-89.59-0.55-136.4,0.08
			c-135.31,1.83-270.93-0.82-405.84,7.72c-109.72,6.94-219.4,23.17-327.64,43.18C661.3,307.1,535.59,341.42,420.8,405
			c-47.66,26.41-94.98,54.76-128.95,100.28c-25.86,34.64-21.8,73.76,12.48,101.76c51.95,42.52,112.88,67.87,174.12,92.75
			c87.84,35.69,180.67,48.21,274.09,54.96c148.45,10.8,296.79,4.95,443.52-20.17c115.65-19.78,229.5-47.39,329.43-113.93
			c3.59-2.42,8.11-3.43,12.21-5.11c-47.9,51.14-107.61,81.83-170.06,107.07c-100.59,40.72-205.59,64.36-312.78,80.93
			c-133.08,20.59-266.71,27.85-400.89,21.65c-152.12-6.98-302.91-24.81-443.99-86.86c-43.57-19.15-86.82-43.92-122.55-74.97
			C18.82,603.84,25.3,540.19,77.21,476.61c46.42-56.83,109.02-92.75,173.84-124.7c86.43-42.59,177.55-72.47,271.47-91.89
			c103.95-21.49,208.4-41.97,313.56-55.58c156.99-20.28,315.24-26.17,473.59-19.97C1418.15,188.72,1525.72,201.39,1631.85,224.95z"
			/>
		<path class="st3" d="M1156.62,520.8c17.71,12.56,21.26,34.44,3.2,47c-32.76,22.78-67.59,47.2-105.23,57.57
			c-126.73,34.91-256.49,40.68-385.87,16.54c-39.47-7.33-78.36-24.69-113.93-44.04c-39-21.14-48.79-59.36-6.55-101.1
			c44.11-43.53,101.14-58.08,157.62-70.56c124.23-27.42,249.9-34.83,376.12-12.56c22.82,4.02,45.44,9.01,72.2,14.35
			c-62.25,0-119.78-0.78-177.28,0.16c-94,1.6-187.65,8.19-275.8,44.23c-24.49,9.99-45.48,29.41-67.01,45.87
			c-12.64,9.63-12.09,24.53-0.2,32.96c26.99,19.15,55.85,35.73,83.43,53.01c1.91-21.57-1.29-39.51,5.81-51.29
			c7.57-12.52,23.64-23.09,38.15-27.69c46.81-14.78,93.88-30.77,142.09-38.22c71.26-11.04,143.26-9.67,212.85,13.92
			C1130.33,505.75,1144.53,512.22,1156.62,520.8z"/>
		<path class="st1" d="M427.39,470.37l5.03,10.38c-8.43,4.1-16.85,8.15-25.31,12.09c-2.07-2.34-4.13-4.64-6.16-6.94
			c2.07-1.33,5.23-3.28,9.17-5.5c5.34-2.96,9.56-4.76,10.65-5.46C422.95,473.41,425.17,471.89,427.39,470.37z"/>
	</g>
	<g>
	</g>
</g>
<g>
	<path class="st4" d="M763.67,606.79c77.7,20.2,230.13-7.8,230.13-7.8c26.69-3.7,47.86-10.22,62.41-15.6
		c41.25-15.27,56.29-31.47,62.41-39c4.55-5.6,16.41-20.23,11.7-31.2c-1.29-3.01-3.52-5.02-7.8-7.8
		c-14.84-9.63-30.28-12.83-54.12-17.19c-13.81-2.52-20.72-3.76-23.91-4.24c-11.04-1.67-26.47-3.17-52.91-3.56
		c-4.22-0.06-66.59-0.15-123.22,13.45c-4.75,1.14-12.98,3.22-14.98,3.73c0,0-29.71,7.52-53.63,14.74c-3.56,1.07-7.3,2.23-11.73,3.76
		c-6.51,2.25-9.5,3.65-27.6,9.47c-2.25,0.73-4.95,1.59-8.44,3.24c-5.61,2.64-17.62,8.31-23.4,19.5c-6.66,12.89-2.86,28.89,3.9,39
		C740.94,599.96,754.92,604.51,763.67,606.79z"/>
</g>
<path class="st5" d="M778.72,554.19c-0.29,0.8-3.52,9.98,0.56,17.5c5.91,10.91,24.13,12.67,80.85,10.61
	c33.69-1.23,55.67-2.81,55.67-2.81s46.42-3.34,128.26-22.49c5-1.17,17.56-4.44,23.62-14.27c2.23-3.62,2.92-7.35,3.55-10.94
	c0.9-5.16,0.02-10.04-2.4-14.04c-1.01-1.66-3.02-4.42-7.3-6.89c-24.19-13.97-52.11-13.28-52.11-13.28c-31.11,0-55.82,3.85-81.91,7.8
	c-14.06,2.13-31.17,4.75-50.71,7.8c-15.14,2.94-27.73,6.2-37.12,8.88c-9.37,2.68-21.83,7.02-36.78,13.58
	C791.02,540.84,782.06,545.09,778.72,554.19z"/>
<rect x="139.33" y="33" class="st6" width="208.24" height="61.89"/>
<text transform="matrix(1 0 0 1 139.333 55.582)" class="st7"><tspan x="0" y="0" class="st8 st9 st10">CREATIVE</tspan><tspan x="0" y="23.95" class="st8 st9 st10">SPACE</tspan></text>
</svg>
