<?xml version="1.0" encoding="utf-8"?>
<!-- Generator: Adobe Illustrator 24.1.0, SVG Export Plug-In . SVG Version: 6.00 Build 0)  -->
<svg version="1.1" id="Capa_1" xmlns="http://www.w3.org/2000/svg" xmlns:xlink="http://www.w3.org/1999/xlink" x="0px" y="0px"
	 viewBox="0 0 403.9 69.8" style="enable-background:new 0 0 403.9 69.8;" xml:space="preserve">
<style type="text/css">
	.st0{fill:#7848B6;}
	.st1{fill:#9B4BBE;}
	.st2{fill:#A54C9E;}
	.st3{fill:#C16FBF;}
	.st4{fill:#FFE1FF;}
	.st5{fill:#FFFFFF;}
	.st6{font-family:'Rubik-SemiBold';}
	.st7{font-size:32.4px;}
	.st8{letter-spacing:-2;}
	.st9{font-family:'Rubik-Light';}
	.st10{letter-spacing:-1;}
</style>
<path class="st0" d="M130.1,29.9c3.1,2.7,2.7,6.7,0.5,9.8c-2.4,3.4-5.9,5.4-9.4,7.4c-5.1,2.8-10.7,4.9-16.4,6.1
	C97.9,54.6,91,55.8,84,56.8c-10.2,1.4-20.6,1.8-30.9,1.1c-6-0.3-12.1-1.2-17.9-2.6c-0.4-0.1-0.7-0.2-0.7-0.2h7.7
	c6.4,0,12.9,0.2,19.3-0.1c7.9-0.1,15.8-1,23.5-2.6c5.8-1.2,11.5-2.6,17.1-4.4c4.9-1.5,9.5-4.1,13.3-7.5c2.1-1.9,3-3.7,2.7-5.2
	c0-0.1,0-0.1,0-0.2c-0.4-1.2-1.2-2.1-2.3-2.7c-1.7-1.2-3.5-2.3-5.4-3.3c-1-0.5-2.1-1-3.4-1.5c0.5,0.7,0.9,1.5,1.3,2.2
	c1,2.4-0.7,5-2.4,6.5c-4.9,4.3-10.9,5.6-17,6.7c-8.5,1.7-17.2,2.1-25.8,1.4c-5-0.4-9.9-1.2-14.8-2.4c3.9,0.2,7.8,0.4,11.7,0.5
	c8.3,0.2,16.6-0.1,24.7-1.9c4.1-0.8,8-2.3,11.5-4.6c0.9-0.6,1.7-1.3,2.3-2.2c1.3-1.8,0.6-3.7-1.9-5.2c-5.6-3.6-11.8-4.9-18.4-5
	c-9.8-0.2-19.5,1.4-28.7,4.7c-1.8,0.7-3.5,1.5-5.2,2.4L44,30.2c4.1-2.7,8.7-4.9,13.4-6.3c7.2-2.2,14.6-3.6,22.1-4.1
	c9.2-0.8,18.5-0.5,27.7,0.9c6.4,1,12.7,2.5,18.3,5.7C127.1,27.4,128.7,28.6,130.1,29.9z"/>
<path class="st1" d="M116.5,15.4c0.6,0.1,1.3,0.3,1.6,0.5c-2.6,0-5.4,0-8.2,0c-8.2,0.1-16.3,0-24.4,0.5c-6.6,0.5-13.2,1.3-19.7,2.6
	c-7.7,1.4-15.3,3.5-22.2,7.3c-2.9,1.6-5.7,3.3-7.8,6c-1.5,1.8-1.3,4.4,0.4,5.9c0.1,0.1,0.2,0.2,0.3,0.2c3.1,2.5,6.8,4.1,10.5,5.6
	c5.3,2.2,10.9,2.9,16.5,3.3c8.9,0.7,17.9,0.3,26.7-1.2c7-1.2,13.8-2.8,19.8-6.9c0.2-0.1,0.5-0.2,0.7-0.3c-2.9,2.9-6.4,5.1-10.2,6.4
	c-6.1,2.3-12.4,4-18.8,4.9c-8,1.2-16.1,1.7-24.1,1.3c-9.2-0.4-18.2-1.5-26.7-5.2c-2.7-1.1-5.1-2.7-7.4-4.5
	c-4.1-3.6-3.7-7.4-0.6-11.3c2.8-3.4,6.6-5.6,10.5-7.5c5.2-2.5,10.7-4.4,16.3-5.5c6.3-1.3,12.5-2.5,18.9-3.3c9.5-1.2,19-1.6,28.5-1.2
	C103.6,13.2,110.1,14,116.5,15.4z"/>
<path class="st2" d="M87.9,33.2c1.1,0.8,1.3,2.1,0.2,2.8c-1.9,1.5-4.1,2.7-6.3,3.5c-7.6,2.1-15.5,2.5-23.2,1
	c-2.4-0.5-4.7-1.4-6.9-2.7c-2.3-1.3-2.9-3.6-0.4-6.1s6.1-3.5,9.5-4.3c7.4-1.8,15.1-2,22.6-0.8c1.4,0.2,2.7,0.5,4.3,0.9
	c-3.7,0-7.2,0-10.7,0c-5.7,0.1-11.3,0.5-16.6,2.7C59,31,57.6,32,56.4,33c-0.6,0.3-0.7,1.1-0.4,1.6c0.1,0.2,0.2,0.3,0.4,0.4
	c1.6,1.2,3.4,2.2,5,3.2c0.1-1.3-0.1-2.4,0.3-3.1c0.6-0.8,1.4-1.4,2.3-1.7c2.8-1,5.6-1.8,8.6-2.3c4.3-0.8,8.7-0.5,12.8,0.8
	C86.3,32.3,87.1,32.7,87.9,33.2z"/>
<path class="st0" d="M38.1,28.4l0.3,0.6l-1.5,0.7l-0.4-0.4l0.5-0.3c0.3-0.2,0.6-0.3,0.6-0.3L38.1,28.4z"/>
<path class="st3" d="M64.2,38.4c4.7,1.2,13.8-0.5,13.8-0.5c1.3-0.2,2.5-0.5,3.8-0.9c1.4-0.4,2.7-1.2,3.8-2.3c0.3-0.3,1-1.2,0.7-1.9
	c-0.1-0.2-0.3-0.4-0.5-0.5c-1-0.6-2.1-0.9-3.3-1L81.1,31c-1.1-0.1-2.1-0.2-3.2-0.2c-2.5,0-5,0.3-7.4,0.8l-0.9,0.2
	c0,0-1.8,0.5-3.2,0.9L65.7,33c-0.4,0.1-0.6,0.2-1.7,0.6c-0.2,0.1-0.3,0.1-0.5,0.2c-0.6,0.2-1.1,0.6-1.4,1.2
	c-0.3,0.8-0.2,1.6,0.3,2.3C62.8,37.8,63.5,38.2,64.2,38.4z"/>
<path class="st4" d="M65.1,35.2c-0.1,0.3-0.1,0.7,0,1.1c0.4,0.7,1.4,0.8,4.9,0.6c2-0.1,3.4-0.2,3.4-0.2c2.6-0.3,5.2-0.7,7.7-1.4
	c0.6-0.1,1.1-0.4,1.4-0.9c0.1-0.2,0.2-0.4,0.2-0.7c0.1-0.3,0-0.6-0.1-0.8c-0.1-0.2-0.3-0.3-0.4-0.4c-1-0.5-2-0.8-3.1-0.8
	c-1.7,0-3.3,0.2-4.9,0.5c-0.8,0.1-1.9,0.3-3,0.5c-0.9,0.2-1.7,0.4-2.2,0.5c-0.8,0.2-1.5,0.5-2.2,0.8C65.9,34.4,65.4,34.7,65.1,35.2z
	"/>
<text transform="matrix(1 0 0 1 135.6949 43.715)" class="st5 st6 st7">CRE</text>
<text transform="matrix(1 0 0 1 198.7449 43.715)" class="st5 st6 st7 st8">A</text>
<text transform="matrix(1 0 0 1 218.5649 43.715)" class="st5 st6 st7">TIVE</text>
<text transform="matrix(1 0 0 1 288.6151 43.715)" class="st5 st9 st7">S</text>
<text transform="matrix(1 0 0 1 307.5651 43.715)" class="st5 st9 st7 st10">P</text>
<text transform="matrix(1 0 0 1 326.0651 43.715)" class="st5 st9 st7">A</text>
<text transform="matrix(1 0 0 1 346.0851 43.715)" class="st5 st9 st7">CE</text>
</svg>
