<svg id="Capa_1" data-name="Capa 1" xmlns="http://www.w3.org/2000/svg" viewBox="0 0 403.89 69.78"><defs><style>.cls-1{fill:#7848b6;}.cls-2{fill:#9b4bbe;}.cls-3{fill:#a54c9e;}.cls-4{fill:#c16fbf;}.cls-5{fill:#ffe1ff;}.cls-6{font-size:32.4px;fill:#fff;font-family:Rubik-SemiBold, Rubik;font-weight:600;letter-spacing:-0.02em;}.cls-7{letter-spacing:-0.09em;}.cls-10,.cls-8,.cls-9{font-family:Rubik-Light, Rubik;font-weight:300;}.cls-9{letter-spacing:-0.06em;}.cls-10{letter-spacing:-0.03em;}</style></defs><path class="cls-1" d="M135.76,51.19c3.05,2.71,2.73,6.73.52,9.8-2.43,3.38-5.89,5.4-9.41,7.36a58.62,58.62,0,0,1-16.45,6.07c-6.87,1.44-13.8,2.68-20.74,3.68a154.6,154.6,0,0,1-30.86,1.12,93.71,93.71,0,0,1-17.93-2.63c-.36-.09-.72-.21-.72-.21h7.66c6.44,0,12.88.15,19.32-.06a126.23,126.23,0,0,0,23.5-2.63,172,172,0,0,0,17.14-4.36,36.78,36.78,0,0,0,13.33-7.45c2.13-1.94,3-3.67,2.66-5.17a1,1,0,0,0,0-.17,5.12,5.12,0,0,0-2.25-2.74,48.67,48.67,0,0,0-5.4-3.29c-1-.47-2.11-1-3.42-1.55A18.39,18.39,0,0,1,114,51.2c1,2.39-.7,5-2.44,6.54-4.89,4.28-10.94,5.59-17,6.72a91,91,0,0,1-25.81,1.37,98.8,98.8,0,0,1-14.82-2.38c3.89.18,7.77.42,11.65.51,8.3.2,16.56-.07,24.71-1.92a31,31,0,0,0,11.47-4.62,10.2,10.2,0,0,0,2.33-2.16c1.31-1.76.57-3.67-1.88-5.23-5.63-3.57-11.85-4.94-18.42-5a78.54,78.54,0,0,0-28.7,4.72c-1.78.67-3.48,1.53-5.19,2.36l-.3-.62A52,52,0,0,1,63,45.16a99.33,99.33,0,0,1,22.06-4.1,115.45,115.45,0,0,1,27.67.86c6.39,1,12.65,2.47,18.32,5.72A30,30,0,0,1,135.76,51.19Z" transform="translate(-26.11 -34.11)"/><path class="cls-2" d="M122.1,36.69c.64.14,1.26.35,1.63.45-2.58,0-5.4,0-8.21,0-8.15.11-16.31,0-24.43.46a167.85,167.85,0,0,0-19.72,2.6c-7.69,1.42-15.26,3.49-22.17,7.31-2.87,1.59-5.71,3.3-7.76,6a4.18,4.18,0,0,0,.75,6.13c3.13,2.55,6.8,4.08,10.48,5.58,5.29,2.15,10.88,2.9,16.5,3.31a110.53,110.53,0,0,0,26.7-1.22c7-1.19,13.81-2.85,19.82-6.86a4.41,4.41,0,0,1,.74-.3,27.73,27.73,0,0,1-10.24,6.44,84,84,0,0,1-18.82,4.87,121.14,121.14,0,0,1-24.13,1.31c-9.16-.42-18.23-1.5-26.73-5.23a29.7,29.7,0,0,1-7.37-4.51c-4.13-3.59-3.74-7.42-.62-11.25,2.8-3.42,6.56-5.58,10.47-7.5A68,68,0,0,1,55.33,38.8c6.25-1.3,12.54-2.53,18.87-3.35a170.75,170.75,0,0,1,28.51-1.2A109.29,109.29,0,0,1,122.1,36.69Z" transform="translate(-26.11 -34.11)"/><path class="cls-3" d="M93.49,54.49c1.07.76,1.28,2.08.2,2.83a22.23,22.23,0,0,1-6.34,3.47,51.2,51.2,0,0,1-23.22,1,23.63,23.63,0,0,1-6.86-2.65c-2.35-1.27-2.94-3.57-.4-6.08s6.09-3.5,9.49-4.25A57.53,57.53,0,0,1,89,48.05c1.37.24,2.73.54,4.34.86-3.74,0-7.2,0-10.67,0-5.65.09-11.29.49-16.6,2.66a19.11,19.11,0,0,0-4,2.76,1.17,1.17,0,0,0,0,2c1.62,1.15,3.36,2.15,5,3.19.12-1.3-.08-2.38.35-3.09a4.41,4.41,0,0,1,2.3-1.67,58.38,58.38,0,0,1,8.55-2.3,26.77,26.77,0,0,1,12.81.84A9.79,9.79,0,0,1,93.49,54.49Z" transform="translate(-26.11 -34.11)"/><path class="cls-1" d="M49.6,51.46l.3.62-1.52.73L48,52.39l.55-.33c.32-.18.58-.28.64-.33Z" transform="translate(-26.11 -34.11)"/><path class="cls-4" d="M69.84,59.67c4.68,1.22,13.85-.47,13.85-.47a17.39,17.39,0,0,0,3.76-.94,8,8,0,0,0,3.75-2.35c.28-.33,1-1.21.71-1.87a1,1,0,0,0-.47-.47,8.29,8.29,0,0,0-3.26-1l-1.44-.25a24.11,24.11,0,0,0-3.18-.22,35.24,35.24,0,0,0-7.42.81l-.9.23s-1.79.45-3.23.88l-.7.23c-.4.13-.58.22-1.67.57a5.12,5.12,0,0,0-.5.19,2.89,2.89,0,0,0-1.41,1.18A2.44,2.44,0,0,0,68,58.5,3.11,3.11,0,0,0,69.84,59.67Z" transform="translate(-26.11 -34.11)"/><path class="cls-5" d="M70.75,56.5a1.38,1.38,0,0,0,0,1.06c.36.65,1.45.76,4.87.64C77.67,58.12,79,58,79,58a54.74,54.74,0,0,0,7.72-1.36,2.23,2.23,0,0,0,1.42-.86,1.83,1.83,0,0,0,.21-.65,1.21,1.21,0,0,0-.14-.85,1.1,1.1,0,0,0-.44-.41,6.6,6.6,0,0,0-3.14-.8,30.57,30.57,0,0,0-4.93.47c-.85.12-1.88.28-3,.47-.91.17-1.67.37-2.24.53a17.09,17.09,0,0,0-2.21.82C71.49,55.7,71,56,70.75,56.5Z" transform="translate(-26.11 -34.11)"/><text class="cls-6" transform="translate(115.22 30.89)">CRE<tspan class="cls-7" x="63.05" y="0">A</tspan><tspan x="82.87" y="0">TIVE</tspan><tspan class="cls-8" x="152.92" y="0">S</tspan><tspan class="cls-9" x="171.87" y="0">P</tspan><tspan class="cls-10" x="190.37" y="0">A</tspan><tspan class="cls-8" x="210.39" y="0">CE</tspan></text></svg>